Motion_pu06
version=1
nRows=5
nColumns=43
inDegrees=yes
endheader
time	pelvis_tilt	pelvis_list	pelvis_rotation	pelvis_tx	pelvis_ty	pelvis_tz	hip_flexion_r	hip_adduction_r	hip_rotation_r	knee_angle_r	ankle_angle_r	subtalar_angle_r	mtp_angle_r	hip_flexion_l	hip_adduction_l	hip_rotation_l	knee_angle_l	ankle_angle_l	subtalar_angle_l	mtp_angle_l	lumbar_extension	lumbar_bending	lumbar_rotation	neck_flexion	neck_lateral_bending	neck_rotation	arm_flex_r	arm_add_r	arm_rot_r	elbow_flex_r	pro_sup_r	wrist_flex_r	wrist_dev_r	hand_finger_flex_r	arm_flex_l	arm_add_l	arm_rot_l	elbow_flex_l	pro_sup_l	wrist_flex_l	wrist_dev_l	hand_finger_flex_l
      3.77000000	     -3.00274965	      7.54933683	    -97.63597314	     -0.01324064	      0.93192696	      0.76560756	     -3.07118402	     -7.51524574	     -2.52745578	    -19.06568524	     12.46894090	     -3.24913475	     10.02467942	      4.87146370	     -6.16909426	    -17.54574714	    -22.73451254	     17.33976841	      6.30896858	     18.46356651	    -12.55307170	      7.17460855	     14.01734279	    -29.00587426	      3.41226977	    -13.32791744	    -19.55384767	   -156.70431025	   -136.92728378	     56.25719478	    132.79016637	      6.98891065	     -3.86108933	     61.60154820	    137.42541955	    -30.24231833	     10.49921748	     70.18864586	    145.90670633	      4.05098867	      3.49429716	     63.48853981
      3.77250000	     -2.97638032	      7.69434569	    -97.24835854	     -0.01280761	      0.93164860	      0.76480347	     -3.14222080	     -7.49722744	     -2.22997436	    -18.75167445	     12.30288111	     -3.08605366	     10.04169198	      4.90272591	     -6.12067118	    -17.66372926	    -22.19266304	     16.88680655	      6.52138116	     18.31221413	    -12.29622202	      7.24855794	     13.77968018	    -29.23986304	      3.52780920	    -13.35835273	    -19.41119325	   -156.64765975	   -136.50769005	     56.00946495	    132.72024580	      6.99130349	     -3.88268011	     61.60175138	    137.43561548	    -30.17963114	     10.92645616	     69.72833565	    145.89830882	      4.10706849	      3.46648728	     63.43015110
      3.77500000	     -2.97819488	      7.66787015	    -97.26852114	     -0.01317544	      0.93220553	      0.76341790	     -3.09426206	     -7.49195173	     -2.23384947	    -18.71022461	     12.30214551	     -3.08397563	     10.04318474	      4.93793209	     -6.15215032	    -17.66138585	    -22.15616438	     16.87273343	      6.53273131	     18.30468070	    -12.35938872	      7.21364333	     13.73658528	    -29.24660084	      3.53267283	    -13.36167304	    -19.49663046	   -156.63992340	   -136.43976585	     55.99451349	    132.71073381	      6.99504163	     -3.88712586	     61.60187341	    137.43144101	    -30.20044220	     10.92745729	     69.71397844	    145.89634045	      4.10499686	      3.46595299	     63.42665150
      3.77750000	     -2.97847670	      7.64024188	    -97.27238769	     -0.01353439	      0.93273918	      0.76206809	     -3.05386470	     -7.49246546	     -2.23256352	    -18.66916488	     12.29967826	     -3.08021596	     10.04457054	      4.97927261	     -6.18815072	    -17.66282789	    -22.11240448	     16.85421341	      6.54484487	     18.29635370	    -12.41480739	      7.17902931	     13.69982224	    -29.25726546	      3.53668794	    -13.36404588	    -19.56464741	   -156.62481577	   -136.38188283	     55.96722099	    132.69991909	      6.99757451	     -3.89095737	     61.60158401	    137.41409138	    -30.21595456	     10.94349400	     69.69046841	    145.89423414	      4.10569761	      3.46411669	     63.42282249
      3.78000000	     -2.97855706	      7.61475651	    -97.27025133	     -0.01391134	      0.93327274	      0.76067031	     -3.01270809	     -7.48969190	     -2.22708335	    -18.62421572	     12.29556423	     -3.07436810	     10.04591214	      5.02204797	     -6.22338039	    -17.66832606	    -22.06409919	     16.83021914	      6.55855362	     18.28702971	    -12.46990778	      7.14206248	     13.65548707	    -29.27247473	      3.54047545	    -13.36566382	    -19.62661298	   -156.60825126	   -136.31906379	     55.92828859	    132.68671019	      6.99990697	     -3.89489059	     61.60092449	    137.38584150	    -30.22405567	     10.97410400	     69.65824007	    145.89182124	      4.10861184	      3.46087887	     63.41838076
